<?xml version="1.0" encoding="UTF-8"?><svg xmlns="http://www.w3.org/2000/svg" xmlns:xlink="http://www.w3.org/1999/xlink" contentScriptType="text/ecmascript" width="810" zoomAndPan="magnify" contentStyleType="text/css" viewBox="0 0 810 809.999993" height="809.999993" preserveAspectRatio="xMidYMid meet" version="1.0"><defs><clipPath id="clip-0"><path d="M 8.101562 0 L 801.601562 0 L 801.601562 810 L 8.101562 810 Z M 8.101562 0 " clip-rule="nonzero"/></clipPath></defs><g clip-path="url(#clip-0)"><path fill="rgb(95.289612%, 46.669006%, 28.239441%)" d="M 702.292969 214.898438 C 756.972656 214.898438 801.4375 170.414062 801.4375 115.714844 C 801.4375 61.015625 756.972656 16.53125 702.292969 16.53125 C 647.613281 16.53125 603.144531 61.015625 603.144531 115.714844 C 603.144531 130.824219 606.628906 145.105469 612.710938 157.933594 L 392.96875 310.839844 C 374.957031 292.460938 349.921875 281.019531 322.226562 281.019531 C 312.972656 281.019531 304.066406 282.390625 295.558594 284.773438 L 246.59375 180.53125 C 272.289062 162.59375 289.179688 132.839844 289.179688 99.183594 C 289.179688 44.484375 244.710938 0 190.03125 0 C 135.351562 0 90.882812 44.484375 90.882812 99.183594 C 90.882812 153.882812 135.351562 198.367188 190.03125 198.367188 C 199.285156 198.367188 208.191406 196.996094 216.703125 194.613281 L 265.664062 298.855469 C 239.953125 316.792969 223.082031 346.546875 223.082031 380.203125 C 223.082031 402.902344 230.8125 423.761719 243.6875 440.492188 L 161.773438 528.78125 C 146.140625 518.484375 127.484375 512.449219 107.410156 512.449219 C 52.730469 512.449219 8.261719 556.933594 8.261719 611.632812 C 8.261719 666.332031 52.730469 710.816406 107.410156 710.816406 C 162.089844 710.816406 206.554688 666.332031 206.554688 611.632812 C 206.554688 588.9375 198.824219 568.074219 185.949219 551.34375 L 267.863281 463.054688 C 283.476562 473.355469 302.148438 479.386719 322.226562 479.386719 C 330.871094 479.386719 339.199219 478.164062 347.195312 476.082031 L 415.804688 628.445312 C 389.285156 646.265625 371.800781 676.53125 371.800781 710.816406 C 371.800781 765.515625 416.269531 810 470.949219 810 C 525.628906 810 570.09375 765.515625 570.09375 710.816406 C 570.09375 656.117188 525.628906 611.632812 470.949219 611.632812 C 462.304688 611.632812 453.976562 612.855469 445.980469 614.9375 L 377.371094 462.578125 C 387.449219 455.796875 396.15625 447.203125 403.164062 437.300781 L 607.042969 534.75 C 604.566406 543.425781 603.144531 552.570312 603.144531 562.039062 C 603.144531 616.742188 647.613281 661.222656 702.292969 661.222656 C 756.972656 661.222656 801.4375 616.742188 801.4375 562.039062 C 801.4375 507.339844 756.972656 462.855469 702.292969 462.855469 C 668.878906 462.855469 639.316406 479.535156 621.355469 504.945312 L 417.476562 407.496094 C 419.953125 398.816406 421.375 389.675781 421.375 380.203125 C 421.375 365.09375 417.886719 350.8125 411.808594 337.984375 L 631.550781 185.078125 C 649.5625 203.457031 674.597656 214.898438 702.292969 214.898438 Z M 123.933594 99.183594 C 123.933594 62.71875 153.578125 33.0625 190.03125 33.0625 C 226.484375 33.0625 256.128906 62.71875 256.128906 99.183594 C 256.128906 135.648438 226.484375 165.304688 190.03125 165.304688 C 153.578125 165.304688 123.933594 135.648438 123.933594 99.183594 Z M 537.046875 710.816406 C 537.046875 747.28125 507.402344 776.9375 470.949219 776.9375 C 434.496094 776.9375 404.851562 747.28125 404.851562 710.816406 C 404.851562 674.351562 434.496094 644.695312 470.949219 644.695312 C 507.402344 644.695312 537.046875 674.351562 537.046875 710.816406 Z M 702.292969 495.917969 C 738.746094 495.917969 768.390625 525.574219 768.390625 562.039062 C 768.390625 598.507812 738.746094 628.164062 702.292969 628.164062 C 665.839844 628.164062 636.191406 598.507812 636.191406 562.039062 C 636.191406 525.574219 665.839844 495.917969 702.292969 495.917969 Z M 107.410156 677.753906 C 70.957031 677.753906 41.3125 648.097656 41.3125 611.632812 C 41.3125 575.167969 70.957031 545.511719 107.410156 545.511719 C 143.863281 545.511719 173.507812 575.167969 173.507812 611.632812 C 173.507812 648.097656 143.863281 677.753906 107.410156 677.753906 Z M 322.226562 446.328125 C 285.773438 446.328125 256.128906 416.671875 256.128906 380.203125 C 256.128906 343.738281 285.773438 314.082031 322.226562 314.082031 C 358.679688 314.082031 388.324219 343.738281 388.324219 380.203125 C 388.324219 416.671875 358.679688 446.328125 322.226562 446.328125 Z M 702.292969 49.59375 C 738.746094 49.59375 768.390625 79.246094 768.390625 115.714844 C 768.390625 152.179688 738.746094 181.835938 702.292969 181.835938 C 665.839844 181.835938 636.191406 152.179688 636.191406 115.714844 C 636.191406 79.246094 665.839844 49.59375 702.292969 49.59375 Z M 702.292969 49.59375 " fill-opacity="1" fill-rule="nonzero"/></g></svg>